<svg id="W_Icon_Header_Logo_Bharatgas" data-name="W/Icon/Header/Logo/Bharatgas" xmlns="http://www.w3.org/2000/svg" width="100" height="33.818" viewBox="0 0 100 33.818">
    <defs>
        <style>
            .cls-1{fill:#f8dc22}.cls-1,.cls-2,.cls-4,.cls-5{fill-rule:evenodd}.cls-2,.cls-3{fill:#1b77bb}.cls-4{fill:#ec1c24}.cls-5{fill:#fff}
        </style>
    </defs>
    <path id="Path_30464" data-name="Path 30464" class="cls-1" d="M0 0h100v33.818H0V0z"/>
    <path id="Path_30465" data-name="Path 30465" class="cls-2" d="m25.847 31.227-5.783 14.78c8.516 1.517 15.495-5.432 10.863-8.339a6.3 6.3 0 0 0 2.773-1.725c1.56-1.664 1.82-4.716-1.746-4.716zM29 33.113l-1.7 4.294c1.057-.07 4.723-1.769 3.829-3.692-.239-.514-1.132-.618-2.133-.6zm-2.57 6.522c-.565 1.431-1.072 2.664-1.637 4.1 1.057-.07 4.664-1.571 3.77-3.494-.239-.514-1.132-.618-2.133-.6z" transform="translate(-15.477 -24.087)"/>
    <path id="Path_30466" data-name="Path 30466" class="cls-3" d="m71.194 59.122 3.27-9.184h2.418l-1.437 4.036c.621-.776 3.055-1.744 3.624-.48a1.525 1.525 0 0 1-.018 1.179l-1.584 4.45h-2.448l1.227-3.448c.427-1.2-1.086-.9-1.42.035l-1.215 3.412z" transform="translate(-54.916 -38.52)"/>
    <path id="Path_30467" data-name="Path 30467" class="cls-3" d="M291.708 65.558a.651.651 0 0 0 .082.173c.441.675 2.367 1.379 2.681.3.128-.438-.542-.935-.924-1.222-1.071-.8-1.2-2.136.452-2.934a2.972 2.972 0 0 1 .781-.245 4.048 4.048 0 0 1 3.1.8c-.229.549-.29.778-.58 1.556-.819-1.242-2.446-.942-2.217-.119a1.371 1.371 0 0 0 .488.642 4.774 4.774 0 0 1 .937.956 1.408 1.408 0 0 1-.369 1.926 3.6 3.6 0 0 1-2.666.84 3.56 3.56 0 0 1-2.615-1.277c.325-.536.528-.814.848-1.4z" transform="translate(-224.358 -47.502)"/>
    <path id="Path_30468" data-name="Path 30468" class="cls-3" d="m203.548 59.089 1.606-4.511h-1.042l.587-1.6h1.042l1.071-3.087h2.482l-1.071 3.087h1.11l-.587 1.6h-1.11l-1.606 4.511z" transform="translate(-157.009 -38.487)"/>
    <path id="Path_30469" data-name="Path 30469" class="cls-3" d="m138.983 69.381 2.2-6.144h2.317l-.391 1.065a3.105 3.105 0 0 1 3.864-.543l-1.33 1.956a2.4 2.4 0 0 0-2.229-.093 2.867 2.867 0 0 0-1.247 1.774l-.707 1.986z" transform="translate(-107.206 -48.778)"/>
    <path id="Path_30470" data-name="Path 30470" class="cls-3" d="m108.711 69.293.242-.68c-1.351 1.119-3.941 1.135-4.128-.762-.212-2.15 2.048-4.726 6.08-4.723h2.578l-2.195 6.165zm.752-2.054 1.044-2.749c-.763.053-3.412 1.327-2.764 2.77.173.386 1.186.471 1.721-.021z" transform="translate(-80.847 -48.694)"/>
    <path id="Path_30471" data-name="Path 30471" class="cls-3" d="m171.337 68.928.242-.68c-1.351 1.119-3.941 1.134-4.128-.763-.212-2.15 2.048-4.726 6.08-4.723h2.578l-2.195 6.165zm.752-2.054 1.043-2.749c-.763.053-3.411 1.327-2.764 2.77.173.385 1.186.471 1.721-.021z" transform="translate(-129.155 -48.413)"/>
    <path id="Path_30472" data-name="Path 30472" class="cls-3" d="m262.574 68.928.242-.68c-1.351 1.119-3.941 1.134-4.128-.763-.212-2.15 2.049-4.726 6.08-4.723h2.578l-2.195 6.165zm.752-2.054 1.043-2.749c-.763.053-3.411 1.327-2.764 2.77.173.385 1.186.471 1.721-.021z" transform="translate(-199.531 -48.413)"/>
    <path id="Path_30473" data-name="Path 30473" class="cls-3" d="M214.911 69.668c.574 2.305 3.009 3.043 4.105-1.085l.119-.334c-1.351 1.119-3.941 1.134-4.128-.763-.212-2.15 2.048-4.726 6.08-4.723h2.578c-1.451 2.992-2.112 6.973-3.45 9.151a2.844 2.844 0 0 1-.381.45 4.047 4.047 0 0 1-4.718.848 4.193 4.193 0 0 1-2.6-3.544c.711-.006 1.685.006 2.4 0zm4.718-2.793.916-2.749c-.761.053-3.35 1.327-2.636 2.77.191.385 1.208.471 1.72-.021z" transform="translate(-163.926 -48.413)"/>
    <path id="Path_30474" data-name="Path 30474" class="cls-4" d="M247.347 7.565c.978 1.546 1.888 1.419 3.406 3.749a5.877 5.877 0 0 1-.278 5.3c-.182-2.49-.485-4.513-1.225-4.865-1.136 3.05-.689 5.047.477 6.566-4.941-4.614-1.173-6.681-3.606-9.345a3.935 3.935 0 0 1 1.686.779c.321-.657-.848-2.8-.459-2.184z" transform="translate(-189.847 -5.751)"/>
    <path id="Path_30475" data-name="Path 30475" class="cls-2" d="M234.292 22.275c1.524 1.067 2.4.657 4.742 2.251a5.124 5.124 0 0 1 1.554 4.84c-1.046-2.172-2.053-3.885-2.923-3.96-.093 3.1 1.05 4.745 2.755 5.726-6.594-2.527-3.5-5.6-6.882-7.2a4.666 4.666 0 0 1 1.975.15c.1-.693-1.826-2.231-1.221-1.807z" transform="translate(-180.142 -17.126)"/>
    <path id="Path_30476" data-name="Path 30476" class="cls-4" d="M51.287 94.182h35.8l-.2.59H51l.286-.59zm46.3 0h13.393l-.286.59h-13.3l.2-.59z" transform="translate(-39.34 -72.648)"/>
    <path id="Path_30477" data-name="Path 30477" class="cls-2" d="M47.481 99.282H83.75l-.2.59H47.195l.286-.59zm46.774 0h12.919l-.286.59H94.053l.2-.59z" transform="translate(-36.404 -76.583)"/>
    <path id="Path_30478" data-name="Path 30478" class="cls-1" d="M350.612 6.274h19.045v23.771h-19.045V6.274z" transform="translate(-270.448 -4.84)"/>
    <path id="Path_30479" data-name="Path 30479" class="cls-5" d="M350.927 6.592h18.415v23.135h-18.415V6.592zm-.315-.318h19.044v23.771h-19.044V6.274z" transform="translate(-270.448 -4.839)"/>
    <path id="Path_30480" data-name="Path 30480" class="cls-2" d="M351.988 101.622H370.4v1.653h-18.412v-1.653z" transform="translate(-271.51 -78.387)"/>
    <path id="Path_30481" data-name="Path 30481" class="cls-5" d="M354.027 9.167h17.483V22.5h-17.483V9.167z" transform="translate(-273.083 -7.071)"/>
    <path id="Path_30482" data-name="Path 30482" class="cls-3" d="M366.408 76.746h-.508v.167a.342.342 0 0 1-.194.315 1.051 1.051 0 0 1-.925 0 .35.35 0 0 1-.19-.328.361.361 0 0 1 .015-.109.273.273 0 0 1 .052-.094.414.414 0 0 1 .18-.133.671.671 0 0 1 .252-.046h.39v-.36q0-.144-.184-.144c-.146 0-.219.045-.219.136a.281.281 0 0 0 .043.108h-.411l-.031-.056a.193.193 0 0 1-.019-.082.3.3 0 0 1 .179-.283.89.89 0 0 1 .2-.067 1.081 1.081 0 0 1 .232-.024.833.833 0 0 1 .4.08.443.443 0 0 1 .183.164.327.327 0 0 1 .044.12v.409h.507v.225zm-.927.19v-.19h-.215q-.255 0-.255.193c0 .128.075.192.225.192s.244-.065.244-.2zm1.664-.847h-.245v1.367h-.49v-1.367h-.317v-.305h1.056v.305zm1.011 0h-.249v1.367h-.49v-1.367h-.317v-.305h1.056v.305zm1.977 0h-.522l.04.045a.618.618 0 0 1 .071.123.392.392 0 0 1 .032.156.406.406 0 0 1-.231.407 1.171 1.171 0 0 1-.5.107l.036.069a.724.724 0 0 0 .06.1.254.254 0 0 0 .209.065h.539v.3h-.628a.536.536 0 0 1-.364-.123 1.37 1.37 0 0 1-.205-.241 1.04 1.04 0 0 1-.107-.172h-.319v-.305h.666q.359 0 .359-.23a.316.316 0 0 0-.05-.19.256.256 0 0 0-.107-.092.269.269 0 0 0-.077-.022h-.921v-.305h2.023v.305zm1.651.533h-.791a.467.467 0 0 0-.219.058.234.234 0 0 0-.11.229.27.27 0 0 0 .081.217.285.285 0 0 0 .188.069h.038a.33.33 0 0 0 .043 0 .083.083 0 0 0 .033-.01l.009-.006v.291l-.071.008a1.193 1.193 0 0 1-.548-.128.49.49 0 0 1-.252-.483.447.447 0 0 1 .126-.345.6.6 0 0 1 .262-.15.955.955 0 0 1 .192-.034h1.019v-.244h-1.729v-.305h2.468v.305h-.249v1.367h-.49v-.833zm-8.931 3.007v-.657h-.641a.208.208 0 0 0-.069.045.458.458 0 0 0-.105.128.388.388 0 0 0-.049.2.356.356 0 0 0 .147.294.577.577 0 0 0 .366.115.508.508 0 0 0 .351-.125zm0 .236a1.28 1.28 0 0 1-.6.132.851.851 0 0 1-.523-.149.53.53 0 0 1-.2-.454.486.486 0 0 1 .232-.423h-.382v-.305h2.211v.305h-.249v1.367h-.49v-.474zm.392-1.195h-.3a2.159 2.159 0 0 0-.157-.212 1.006 1.006 0 0 0-.267-.231 1.063 1.063 0 0 0-.542-.194l.184-.287a1.576 1.576 0 0 1 .238.088 1.544 1.544 0 0 1 .336.21 1.66 1.66 0 0 1 .26.255 2.194 2.194 0 0 1 .182.249.651.651 0 0 1 .066.122zm2.524.3h-.415v.621h-.82q-.372 0-.372.25a.229.229 0 0 0 .147.212.745.745 0 0 0 .335.073 1.215 1.215 0 0 0 .139-.008.931.931 0 0 0 .133-.024 1.183 1.183 0 0 0 .223-.075l.087-.044.067-.038.043-.03.014-.011.249.3a.742.742 0 0 1-.13.064 2.029 2.029 0 0 1-.31.093 1.954 1.954 0 0 1-.437.046 1.99 1.99 0 0 1-.73-.116.438.438 0 0 1-.29-.447q0-.5.722-.5h.449v-.362h-1.305v-.305h2.2v.305zm.016 1.974-.429.164-.467-.611-.539.585-.371-.192.816-.565h.184l.806.619zm1.027-1.974h-.249v1.367h-.49v-1.365h-.317v-.305h1.056v.305zm-.346-.3h-.3a2.177 2.177 0 0 0-.157-.212 1.007 1.007 0 0 0-.267-.231 1.064 1.064 0 0 0-.542-.194l.184-.287a1.585 1.585 0 0 1 .238.088 1.546 1.546 0 0 1 .336.21 1.672 1.672 0 0 1 .26.255 2.254 2.254 0 0 1 .182.249.639.639 0 0 1 .065.122zm2.7 0h-.411a.468.468 0 0 0-.085-.175.845.845 0 0 0-.272-.25.9.9 0 0 0-.48-.117.513.513 0 0 0-.318.083.276.276 0 0 0-.106.23.357.357 0 0 0 .073.229h.277v.305h-.244v1.367h-.49v-1.37h-.317v-.305h.321a.577.577 0 0 1-.056-.255.5.5 0 0 1 .215-.433.757.757 0 0 1 .254-.111 1.583 1.583 0 0 1 .937.078 1.351 1.351 0 0 1 .4.273 1.479 1.479 0 0 1 .229.291.677.677 0 0 1 .075.157zm.66.859a.542.542 0 0 0-.217.03.416.416 0 0 0-.14.106.5.5 0 0 0-.034.048.113.113 0 0 0-.016.032v.2h-.3v-.2a.2.2 0 0 0-.1-.171.427.427 0 0 0-.235-.066.464.464 0 0 0-.276.086.262.262 0 0 0-.121.221.227.227 0 0 0 .135.226.723.723 0 0 0 .306.062l.078-.006h.046v.246h-.158a1.475 1.475 0 0 1-.6-.123.463.463 0 0 1-.278-.466.405.405 0 0 1 .108-.281.721.721 0 0 1 .284-.186 1.056 1.056 0 0 1 .374-.066.762.762 0 0 1 .62.244l.1-.067a1.065 1.065 0 0 1 .161-.078.723.723 0 0 1 .274-.043v-.3H367.8v-.305h2.767v.305h-.246v1.37h-.492v-.816zm2.481.029v-.583h-.674a.438.438 0 0 1 .1.1.33.33 0 0 1 .058.2q0 .383-.593.382a.561.561 0 0 0 .141.15.491.491 0 0 0 .321.09.7.7 0 0 0 .391-.106.969.969 0 0 0 .259-.241zm0 .408a1.193 1.193 0 0 1-.7.207.913.913 0 0 1-.592-.168.822.822 0 0 1-.267-.347.929.929 0 0 1-.064-.249l.1.014a1.214 1.214 0 0 0 .152.008q.375 0 .375-.212a.252.252 0 0 0-.036-.134.244.244 0 0 0-.075-.085l-.042-.022h-.624v-.305h2.509v.305h-.243v1.367h-.492v-.375zm1.626-.172v-.179h-.146a.952.952 0 0 0-.27.028.121.121 0 0 0-.085.128.156.156 0 0 0 .087.146.364.364 0 0 0 .178.048c.158 0 .236-.057.236-.172zm.992-.419v-.4h-.564v.4zm0 .241h-.564v.132a.355.355 0 0 1-.079.228.508.508 0 0 1-.217.151.821.821 0 0 1-.3.053 1.308 1.308 0 0 1-.354-.048.652.652 0 0 1-.276-.147.328.328 0 0 1-.105-.249.268.268 0 0 1 .108-.226.6.6 0 0 1 .23-.11.966.966 0 0 1 .157-.027h.407v-.4h-.95v-.305h2.681v.305h-.247v1.367h-.492v-.725z" transform="translate(-278.755 -58.429)"/>
    <path id="Path_30483" data-name="Path 30483" class="cls-2" d="M373.156 14.006a5.68 5.68 0 1 1-5.68 5.68 5.681 5.681 0 0 1 5.68-5.68zm0 2.634a4.283 4.283 0 1 1-4.283 4.283 4.284 4.284 0 0 1 4.283-4.283z" transform="translate(-283.457 -10.804)"/>
    <path id="Path_30484" data-name="Path 30484" class="cls-2" d="M379.454 27.583a3.813 3.813 0 1 1-3.813 3.813 3.814 3.814 0 0 1 3.813-3.813z" transform="translate(-289.755 -21.276)"/>
    <path id="Path_30485" data-name="Path 30485" class="cls-1" d="M381.684 33.915a1.263 1.263 0 1 1-2.513-.24 3.028 3.028 0 0 1 4.909-1.986c-1.607.188-2.316.67-2.4 2.226z" transform="translate(-292.477 -23.924)"/>
    <path id="Path_30486" data-name="Path 30486" class="cls-1" d="M386.493 41.5a1.263 1.263 0 1 1 2.513.24 3.028 3.028 0 0 1-4.909 1.986c1.607-.189 2.316-.67 2.4-2.226z" transform="translate(-296.278 -31.091)"/>
    <path id="Path_30487" data-name="Path 30487" class="cls-2" d="M0 112.353h100v8.13H0v-8.13z" transform="translate(0 -86.665)"/>
    <path id="Path_30488" data-name="Path 30488" d="m59.553 123.349.787.26a1.821 1.821 0 0 1-.612 1.032 1.7 1.7 0 0 1-1.054.325 1.671 1.671 0 0 1-1.275-.519 2.264 2.264 0 0 1-.563-1.617 2.372 2.372 0 0 1 .567-1.684 1.72 1.72 0 0 1 1.322-.527 1.665 1.665 0 0 1 1.131.4 1.645 1.645 0 0 1 .475.835l-.8.2a.889.889 0 0 0-.306-.524.844.844 0 0 0-.54-.182.906.906 0 0 0-.727.333 1.7 1.7 0 0 0-.281 1.1 1.8 1.8 0 0 0 .274 1.13.876.876 0 0 0 .713.336.8.8 0 0 0 .555-.213 1.266 1.266 0 0 0 .338-.678zm1.319-.53a2.6 2.6 0 0 1 .259-1.237 1.754 1.754 0 0 1 .677-.724 2.022 2.022 0 0 1 1.014-.238 1.866 1.866 0 0 1 1.407.565 2.23 2.23 0 0 1 .544 1.609 2.269 2.269 0 0 1-.576 1.648 1.812 1.812 0 0 1-1.372.525 1.837 1.837 0 0 1-1.379-.519 2.24 2.24 0 0 1-.575-1.629zm.836-.028a1.6 1.6 0 0 0 .321 1.087 1.024 1.024 0 0 0 .8.363 1.01 1.01 0 0 0 .793-.36 1.643 1.643 0 0 0 .314-1.105 1.611 1.611 0 0 0-.306-1.081 1.013 1.013 0 0 0-.8-.35 1.025 1.025 0 0 0-.807.353 1.62 1.62 0 0 0-.312 1.093zm3.538.028a2.606 2.606 0 0 1 .259-1.237 1.755 1.755 0 0 1 .677-.724 2.023 2.023 0 0 1 1.014-.238 1.867 1.867 0 0 1 1.407.565 2.231 2.231 0 0 1 .544 1.609 2.27 2.27 0 0 1-.576 1.648 1.813 1.813 0 0 1-1.372.525 1.836 1.836 0 0 1-1.379-.519 2.239 2.239 0 0 1-.576-1.629zm.836-.028a1.6 1.6 0 0 0 .321 1.087 1.023 1.023 0 0 0 .8.363 1.009 1.009 0 0 0 .793-.36 1.643 1.643 0 0 0 .314-1.105 1.611 1.611 0 0 0-.31-1.082 1.013 1.013 0 0 0-.8-.35 1.024 1.024 0 0 0-.806.353 1.619 1.619 0 0 0-.312 1.093zm3.708 2.1v-4.2h.81v1.867l1.644-1.867h1.094l-1.516 1.638 1.6 2.566h-1.055l-1.108-1.973-.659.7v1.271zm5.615 0v-4.2h2.757v.712h-1.947v.995H77.9v.712h-1.685v1.786zm3.267-2.076a2.606 2.606 0 0 1 .259-1.237 1.756 1.756 0 0 1 .677-.724 2.022 2.022 0 0 1 1.014-.238 1.867 1.867 0 0 1 1.407.565 2.23 2.23 0 0 1 .544 1.609 2.269 2.269 0 0 1-.573 1.651 1.813 1.813 0 0 1-1.372.525 1.836 1.836 0 0 1-1.379-.519 2.239 2.239 0 0 1-.576-1.629zm.836-.028a1.6 1.6 0 0 0 .321 1.087 1.023 1.023 0 0 0 .8.363 1.009 1.009 0 0 0 .793-.36 1.643 1.643 0 0 0 .314-1.105 1.611 1.611 0 0 0-.306-1.081 1.012 1.012 0 0 0-.8-.35 1.024 1.024 0 0 0-.806.353 1.62 1.62 0 0 0-.312 1.093zm3.538.028a2.606 2.606 0 0 1 .259-1.237 1.756 1.756 0 0 1 .677-.724 2.022 2.022 0 0 1 1.018-.235 1.867 1.867 0 0 1 1.407.565 2.23 2.23 0 0 1 .544 1.609 2.269 2.269 0 0 1-.576 1.648 1.813 1.813 0 0 1-1.372.525 1.836 1.836 0 0 1-1.379-.519 2.24 2.24 0 0 1-.576-1.629zm.836-.028a1.6 1.6 0 0 0 .321 1.087 1.023 1.023 0 0 0 .8.363 1.009 1.009 0 0 0 .793-.36 1.642 1.642 0 0 0 .314-1.105 1.611 1.611 0 0 0-.306-1.081 1.012 1.012 0 0 0-.8-.35 1.024 1.024 0 0 0-.806.353 1.62 1.62 0 0 0-.312 1.093zm3.7-2.1h1.482a2.555 2.555 0 0 1 .848.108 1.4 1.4 0 0 1 .527.363 1.774 1.774 0 0 1 .379.662 3.209 3.209 0 0 1 .137 1.012 2.819 2.819 0 0 1-.144.948 1.818 1.818 0 0 1-.365.638 1.4 1.4 0 0 1-.534.353 2.3 2.3 0 0 1-.805.119h-1.53v-4.2zm.809.712v2.784H89a1.828 1.828 0 0 0 .567-.063.676.676 0 0 0 .288-.191 1.006 1.006 0 0 0 .186-.4 2.892 2.892 0 0 0 .073-.725 2.853 2.853 0 0 0-.075-.737.924.924 0 0 0-.234-.424.766.766 0 0 0-.386-.2 3.663 3.663 0 0 0-.659-.037zm3.247 3.492v-.805h.772v.805zm2.924-1.367.793-.081a.83.83 0 0 0 .877.806.911.911 0 0 0 .578-.165.5.5 0 0 0 .211-.408.4.4 0 0 0-.073-.244.526.526 0 0 0-.225-.166 7.107 7.107 0 0 0-.729-.216 2.663 2.663 0 0 1-.76-.293 1.152 1.152 0 0 1-.384-.414 1.123 1.123 0 0 1-.142-.552 1.1 1.1 0 0 1 .182-.62 1.145 1.145 0 0 1 .5-.416 2 2 0 0 1 .794-.14 1.682 1.682 0 0 1 1.107.33 1.215 1.215 0 0 1 .421.944l-.812.037a.71.71 0 0 0-.232-.474.826.826 0 0 0-.5-.134.911.911 0 0 0-.505.118.343.343 0 0 0-.178.293.348.348 0 0 0 .161.289 2.479 2.479 0 0 0 .739.258 3.339 3.339 0 0 1 .885.32 1.149 1.149 0 0 1 .417.433 1.334 1.334 0 0 1 .144.644 1.219 1.219 0 0 1-.393.92 1.74 1.74 0 0 1-1.23.373 1.472 1.472 0 0 1-1.646-1.442zm3.955 1.367v-4.2h2.983v.712h-2.178v.932h2.022v.708h-2.022v1.144h2.249v.709zm3.748 0v-4.2h1.71a2.752 2.752 0 0 1 .938.114.979.979 0 0 1 .461.393 1.2 1.2 0 0 1 .181.669 1.131 1.131 0 0 1-.275.795 1.291 1.291 0 0 1-.785.378 1.934 1.934 0 0 1 .431.351 4.819 4.819 0 0 1 .466.684l.488.82h-.966l-.589-.915a5.837 5.837 0 0 0-.432-.621.635.635 0 0 0-.241-.172 1.275 1.275 0 0 0-.408-.047h-.168v1.755zm.81-2.427h.6a3.54 3.54 0 0 0 .7-.041.443.443 0 0 0 .244-.167.556.556 0 0 0 .094-.336.52.52 0 0 0-.094-.323.475.475 0 0 0-.255-.167 3.7 3.7 0 0 0-.659-.031h-.636v1.066zm4.174 2.427-1.436-4.2h.88l1.007 3.109.983-3.112h.864l-1.438 4.2zm2.723 0v-4.2h2.986v.712h-2.176v.932h2.018v.708h-2.022v1.144h2.249v.709zm5.331 0v-4.17h.81v3.461h2.021v.709zm3.25-2.076a2.6 2.6 0 0 1 .259-1.237 1.754 1.754 0 0 1 .677-.724 2.022 2.022 0 0 1 1.014-.238 1.866 1.866 0 0 1 1.407.565 2.23 2.23 0 0 1 .544 1.609 2.27 2.27 0 0 1-.575 1.648 1.813 1.813 0 0 1-1.372.525 1.837 1.837 0 0 1-1.379-.519 2.24 2.24 0 0 1-.576-1.629zm.836-.028a1.6 1.6 0 0 0 .321 1.087 1.024 1.024 0 0 0 .8.363 1.01 1.01 0 0 0 .793-.36 1.643 1.643 0 0 0 .314-1.105 1.611 1.611 0 0 0-.306-1.081 1.013 1.013 0 0 0-.8-.35 1.025 1.025 0 0 0-.807.353 1.62 1.62 0 0 0-.312 1.093zm4.726 2.1-1.436-4.2h.88l1.017 3.112.983-3.112h.864l-1.438 4.2zm2.723 0v-4.2h2.986v.712h-2.176v.932h2.022v.708h-2.022v1.144h2.249v.709zm3.742 0v-.805h.772v.805z" transform="translate(-43.841 -93.041)" style="fill:#fff"/>
</svg>
